<svg data-v-423bf9ae="" xmlns="http://www.w3.org/2000/svg" viewBox="0 0 258 90" class="iconLeft"><!----><!----><!----><g data-v-423bf9ae="" id="d0364503-7614-43ac-acbd-5c8b9ab1d41d" fill="#FFFFFF" transform="matrix(5.7526364568010235,0,0,5.7526364568010235,146.04725139492143,-0.7046971599524667)"><path d="M2.42 4.91L2.42 6.02L4.89 6.02L4.89 6.62L2.42 6.62L2.42 13.02L1.72 13.02L1.72 6.62L0.32 6.62L0.32 6.02L1.72 6.02L1.72 4.84L1.72 4.84Q1.72 3.86 2.27 3.30L2.27 3.30L2.27 3.30Q2.81 2.73 3.81 2.73L3.81 2.73L3.81 2.73Q4.56 2.73 4.94 3.11L4.94 3.11L4.75 3.67L4.75 3.67Q4.40 3.36 3.86 3.36L3.86 3.36L3.86 3.36Q3.18 3.36 2.80 3.76L2.80 3.76L2.80 3.76Q2.42 4.16 2.42 4.91L2.42 4.91ZM8.85 5.88L8.85 5.88Q10.40 5.88 11.29 6.85L11.29 6.85L11.29 6.85Q12.18 7.83 12.18 9.52L12.18 9.52L12.18 9.52Q12.18 11.21 11.29 12.19L11.29 12.19L11.29 12.19Q10.40 13.16 8.85 13.16L8.85 13.16L8.85 13.16Q7.29 13.16 6.41 12.19L6.41 12.19L6.41 12.19Q5.52 11.21 5.52 9.52L5.52 9.52L5.52 9.52Q5.52 7.83 6.41 6.85L6.41 6.85L6.41 6.85Q7.29 5.88 8.85 5.88L8.85 5.88ZM8.85 6.48L8.85 6.48Q7.62 6.48 6.92 7.29L6.92 7.29L6.92 7.29Q6.22 8.11 6.22 9.52L6.22 9.52L6.22 9.52Q6.22 10.93 6.92 11.75L6.92 11.75L6.92 11.75Q7.62 12.56 8.85 12.56L8.85 12.56L8.85 12.56Q10.08 12.56 10.78 11.75L10.78 11.75L10.78 11.75Q11.48 10.93 11.48 9.52L11.48 9.52L11.48 9.52Q11.48 8.11 10.78 7.29L10.78 7.29L10.78 7.29Q10.08 6.48 8.85 6.48L8.85 6.48ZM19.43 13.02L18.55 13.02L16.18 9.95L13.86 13.02L13.02 13.02L15.79 9.44L13.16 6.02L14.06 6.02L16.25 8.88L18.38 6.02L19.22 6.02L16.65 9.39L19.43 13.02Z"></path></g><!----><g data-v-423bf9ae="" id="89a20892-dc26-4589-9554-92ac1d43a975" transform="matrix(1.4717711775898643,0,0,1.4717711775898643,-8.799674801754847,-25.368942534342168)" stroke="none" fill="#12c2e9"><path d="M11.146 45.898l21.073-14.072a2 2 0 1 0-2.222-3.326L8.924 42.572a6.444 6.444 0 0 0-2.871 5.37 6.444 6.444 0 0 0 2.871 5.37l21.073 14.072a1.997 1.997 0 0 0 2.774-.552 2 2 0 0 0-.552-2.774L11.146 49.985a2.422 2.422 0 0 1-1.093-2.044c0-.835.399-1.579 1.093-2.043zM90.076 42.572L69.002 28.5a2 2 0 0 0-2.222 3.326l21.073 14.072a2.422 2.422 0 0 1 1.093 2.043 2.42 2.42 0 0 1-1.093 2.044L66.781 64.058a2 2 0 1 0 2.222 3.326l21.073-14.072a6.444 6.444 0 0 0 2.871-5.37 6.444 6.444 0 0 0-2.871-5.37zM59.221 17.834a2 2 0 0 0-2.513 1.297l-18.227 57.11a2 2 0 1 0 3.81 1.215l18.227-57.109a2 2 0 0 0-1.297-2.513z"></path></g><!----></svg>