<svg data-v-423bf9ae="" xmlns="http://www.w3.org/2000/svg" viewBox="0 0 413.0931738959733 60" class="font"><!----><!----><!----><g data-v-423bf9ae="" id="2132da61-655b-4b3d-92fb-ed0c762c7cf9" fill="white" transform="matrix(5.272407679843658,0,0,5.272407679843658,-1.054480361922515,3.6906856110617845)"><path d="M0.20 10.50L2.93-0.45L6.05-0.45L8.78 10.50L6.36 10.50L5.82 8.15L3.15 8.15L2.63 10.50L0.20 10.50ZM5.38 6.19L4.48 2.17L3.58 6.19L5.38 6.19ZM20.38 5.39L20.38 10.50L18.19 10.50L18.19 5.74L18.19 5.74Q18.19 4.80 17.30 4.80L17.30 4.80L17.30 4.80Q16.59 4.80 16.16 5.45L16.16 5.45L16.16 10.50L13.96 10.50L13.96 5.74L13.96 5.74Q13.96 4.80 13.08 4.80L13.08 4.80L13.08 4.80Q12.35 4.80 11.94 5.45L11.94 5.45L11.94 10.50L9.73 10.50L9.73 5.18L9.60 3.08L11.58 3.08L11.73 3.98L11.73 3.98Q12.50 2.90 13.96 2.90L13.96 2.90L13.96 2.90Q15.37 2.90 15.90 4.05L15.90 4.05L15.90 4.05Q16.69 2.90 18.19 2.90L18.19 2.90L18.19 2.90Q19.29 2.90 19.84 3.58L19.84 3.58L19.84 3.58Q20.38 4.27 20.38 5.39L20.38 5.39ZM28.20 10.50L26.21 10.50L26.07 9.73L26.07 9.73Q25.19 10.68 23.74 10.68L23.74 10.68L23.74 10.68Q22.57 10.68 22.02 10.06L22.02 10.06L22.02 10.06Q21.48 9.44 21.48 8.46L21.48 8.46L21.48 8.32L21.48 8.32Q21.48 7.20 22.16 6.66L22.16 6.66L22.16 6.66Q22.83 6.13 24.14 5.94L24.14 5.94L25.84 5.67L25.84 5.67Q25.83 5.10 25.61 4.84L25.61 4.84L25.61 4.84Q25.38 4.58 24.84 4.58L24.84 4.58L24.84 4.58Q23.84 4.58 23.84 5.53L23.84 5.53L21.76 5.53L21.76 5.40L21.76 5.40Q21.76 4.30 22.48 3.60L22.48 3.60L22.48 3.60Q23.21 2.90 24.91 2.90L24.91 2.90L24.91 2.90Q26.64 2.90 27.35 3.60L27.35 3.60L27.35 3.60Q28.06 4.30 28.06 5.73L28.06 5.73L28.06 8.40L28.20 10.50ZM24.56 8.89L24.56 8.89L24.56 8.89Q25.31 8.89 25.84 8.33L25.84 8.33L25.84 6.97L24.58 7.17L24.58 7.17Q23.67 7.32 23.67 8.05L23.67 8.05L23.67 8.13L23.67 8.13Q23.67 8.46 23.89 8.67L23.89 8.67L23.89 8.67Q24.11 8.89 24.56 8.89ZM36.19 5.47L36.19 10.50L33.99 10.50L33.99 5.84L33.99 5.84Q33.99 4.80 33.01 4.80L33.01 4.80L33.01 4.80Q32.16 4.80 31.71 5.50L31.71 5.50L31.71 10.50L29.50 10.50L29.50 5.18L29.37 3.08L31.35 3.08L31.51 4.03L31.51 4.03Q32.31 2.90 33.89 2.90L33.89 2.90L33.89 2.90Q35.07 2.90 35.63 3.63L35.63 3.63L35.63 3.63Q36.19 4.35 36.19 5.47L36.19 5.47ZM40.15 2.90L40.15 2.90L40.15 2.90Q41.36 2.90 42.06 3.71L42.06 3.71L42.06-0.70L44.27-0.70L44.27 8.40L44.39 10.50L42.41 10.50L42.25 9.62L42.25 9.62Q41.52 10.68 40.15 10.68L40.15 10.68L40.15 10.68Q37.39 10.68 37.39 7.04L37.39 7.04L37.39 6.54L37.39 6.54Q37.39 2.90 40.15 2.90ZM42.06 8.08L42.06 5.50L42.06 5.50Q41.58 4.80 40.80 4.80L40.80 4.80L40.80 4.80Q39.59 4.80 39.59 6.54L39.59 6.54L39.59 7.04L39.59 7.04Q39.59 8.78 40.80 8.78L40.80 8.78L40.80 8.78Q41.58 8.78 42.06 8.08L42.06 8.08ZM52.15 10.50L50.16 10.50L50.02 9.73L50.02 9.73Q49.14 10.68 47.70 10.68L47.70 10.68L47.70 10.68Q46.52 10.68 45.98 10.06L45.98 10.06L45.98 10.06Q45.43 9.44 45.43 8.46L45.43 8.46L45.43 8.32L45.43 8.32Q45.43 7.20 46.11 6.66L46.11 6.66L46.11 6.66Q46.79 6.13 48.09 5.94L48.09 5.94L49.80 5.67L49.80 5.67Q49.78 5.10 49.56 4.84L49.56 4.84L49.56 4.84Q49.34 4.58 48.79 4.58L48.79 4.58L48.79 4.58Q47.80 4.58 47.80 5.53L47.80 5.53L45.71 5.53L45.71 5.40L45.71 5.40Q45.71 4.30 46.44 3.60L46.44 3.60L46.44 3.60Q47.17 2.90 48.86 2.90L48.86 2.90L48.86 2.90Q50.60 2.90 51.30 3.60L51.30 3.60L51.30 3.60Q52.01 4.30 52.01 5.73L52.01 5.73L52.01 8.40L52.15 10.50ZM48.51 8.89L48.51 8.89L48.51 8.89Q49.27 8.89 49.80 8.33L49.80 8.33L49.80 6.97L48.54 7.17L48.54 7.17Q47.63 7.32 47.63 8.05L47.63 8.05L47.63 8.13L47.63 8.13Q47.63 8.46 47.85 8.67L47.85 8.67L47.85 8.67Q48.06 8.89 48.51 8.89ZM56.28 10.50L56.28-0.42L62.90-0.42L62.90 1.54L58.55 1.54L58.55 3.95L62.20 3.95L62.20 5.91L58.55 5.91L58.55 10.50L56.28 10.50ZM67.07 10.68L67.07 10.68L67.07 10.68Q65.35 10.68 64.48 9.70L64.48 9.70L64.48 9.70Q63.60 8.72 63.60 7.04L63.60 7.04L63.60 6.54L63.60 6.54Q63.60 4.86 64.48 3.88L64.48 3.88L64.48 3.88Q65.35 2.90 67.07 2.90L67.07 2.90L67.07 2.90Q68.81 2.90 69.68 3.88L69.68 3.88L69.68 3.88Q70.55 4.86 70.55 6.54L70.55 6.54L70.55 7.04L70.55 7.04Q70.55 8.72 69.68 9.70L69.68 9.70L69.68 9.70Q68.81 10.68 67.07 10.68ZM65.81 7.04L65.81 7.04Q65.81 8.78 67.07 8.78L67.07 8.78L67.07 8.78Q68.33 8.78 68.33 7.04L68.33 7.04L68.33 6.54L68.33 6.54Q68.33 4.80 67.07 4.80L67.07 4.80L67.07 4.80Q65.81 4.80 65.81 6.54L65.81 6.54L65.81 7.04ZM73.09 6.66L71.20 3.08L73.75 3.08L74.87 5.59L75.99 3.08L78.55 3.08L76.65 6.66L78.55 10.50L76.06 10.50L74.87 7.84L73.70 10.50L71.20 10.50L73.09 6.66Z"></path></g><!----><!----></svg>