<svg data-v-423bf9ae="" xmlns="http://www.w3.org/2000/svg" viewBox="0 0 264.75287550497376 163" class="iconAbove"><!----><!----><!----><g data-v-423bf9ae="" id="2597edd3-e7b0-4629-b620-58b569f66b42" fill="#ffffff" transform="matrix(5.703422322090099,0,0,5.703422322090099,-6.387829659322449,85.09125164139422)"><path d="M1.93 13.50L1.93 12.07C2.30 13.02 3.30 13.66 4.58 13.66C6.47 13.66 7.81 12.35 7.81 9.98C7.81 7.69 6.59 6.31 4.75 6.31C3.32 6.31 2.30 7.11 1.96 8.05L1.96 3.82L1.12 3.82L1.12 13.50ZM1.96 9.95C1.96 8.16 3.11 7.08 4.54 7.08C5.92 7.08 6.94 8.13 6.94 10.00C6.94 11.91 5.82 12.88 4.48 12.88C3.07 12.88 1.96 12.03 1.96 9.95ZM15.86 10.01C15.86 7.70 14.36 6.33 12.49 6.33C10.56 6.33 8.93 7.71 8.93 9.98C8.93 12.26 10.33 13.66 12.46 13.66C14.32 13.66 15.86 12.26 15.86 10.01ZM14.99 10.00C14.99 11.87 13.78 12.87 12.46 12.87C11.00 12.87 9.81 11.87 9.81 9.95C9.81 8.05 11.09 7.13 12.47 7.13C13.79 7.13 14.99 8.06 14.99 10.00ZM23.37 13.50L23.37 6.51L22.53 6.51L22.53 10.23C22.53 10.89 22.43 11.41 22.15 11.86C21.87 12.31 21.21 12.85 20.27 12.85C19.54 12.85 19.10 12.63 18.80 12.32C18.52 12.01 18.34 11.47 18.34 10.54L18.34 6.51L17.47 6.51L17.47 10.65C17.47 11.69 17.65 12.36 17.96 12.78C18.35 13.33 19.04 13.66 19.98 13.66C21.24 13.66 22.18 13.02 22.53 12.14L22.53 13.50ZM31.67 11.17L30.83 11.02C30.69 12.03 29.83 12.87 28.53 12.87C27.38 12.87 25.94 12.15 25.94 9.94C25.94 8.05 27.15 7.13 28.52 7.13C30.11 7.13 30.65 8.22 30.77 9.06L31.63 8.90C31.46 7.39 30.35 6.33 28.53 6.33C26.60 6.33 25.06 7.67 25.06 9.97C25.06 12.29 26.46 13.66 28.48 13.66C30.28 13.66 31.43 12.60 31.67 11.17ZM34.06 13.50L34.06 9.90C34.06 9.16 34.16 8.58 34.44 8.13C34.72 7.69 35.39 7.14 36.36 7.14C37.04 7.14 37.49 7.34 37.77 7.64C38.05 7.95 38.25 8.47 38.25 9.45L38.25 13.50L39.12 13.50L39.12 9.35C39.12 8.23 38.93 7.62 38.64 7.21C38.22 6.64 37.55 6.34 36.60 6.34C35.36 6.34 34.36 7.03 34.06 7.90L34.06 3.82L33.22 3.82L33.22 13.50ZM47.52 11.38L46.69 11.20C46.44 12.15 45.60 12.88 44.34 12.88C43.30 12.88 41.82 12.32 41.80 10.19L47.54 10.19C47.54 7.62 46.33 6.33 44.27 6.33C42.41 6.33 40.91 7.71 40.91 9.97C40.91 12.19 42.14 13.66 44.31 13.66C46.02 13.66 47.18 12.71 47.52 11.38ZM41.80 9.51C41.94 7.91 43.01 7.11 44.25 7.11C45.92 7.11 46.55 8.19 46.65 9.51ZM44.09 5.43L45.92 3.14L44.87 3.14L43.30 5.43Z"></path></g><!----><g data-v-423bf9ae="" id="af35628f-eaad-43ac-8720-53ba04b7173e" transform="matrix(5,0,0,5,73,-15)" stroke="none" fill="#12DFFF"><path d="M12 5v2H7V5h5m1-1H6v4h7V4zm7 13v2H7v-2h13m1-1H6v4h15v-4zm-5-5v2H7v-2h9m1-1H6v4h11v-4zM4 21V3H3v18h1z"></path></g><!----></svg>